<svg width="1239" height="371" viewBox="0 0 1239 371" fill="none" xmlns="http://www.w3.org/2000/svg">
<g clip-path="url(#clip0)">
<path d="M19.3594 292V141.25H59.0156V168.531H59.8594C63.0469 159.344 68.4844 152.031 76.1719 146.594C83.8594 141.156 92.7656 138.438 102.891 138.438C113.766 138.438 122.859 141.156 130.172 146.594C137.484 151.938 142.406 159.531 144.938 169.375H145.781C149.156 159.906 155.016 152.406 163.359 146.875C171.797 141.25 181.547 138.438 192.609 138.438C207.422 138.438 219.328 143.078 228.328 152.359C237.422 161.641 241.969 173.875 241.969 189.062V292H200.906V199.328C200.906 190.609 198.797 183.953 194.578 179.359C190.359 174.672 184.266 172.328 176.297 172.328C168.516 172.328 162.234 174.906 157.453 180.062C152.766 185.219 150.422 192.016 150.422 200.453V292H110.906V198.062C110.906 190 108.75 183.719 104.438 179.219C100.125 174.625 94.1719 172.328 86.5781 172.328C78.7969 172.328 72.4688 175 67.5938 180.344C62.8125 185.688 60.4219 192.578 60.4219 201.016V292H19.3594ZM488.906 292V89.0781H529.266V168.109H530.109C534.141 158.547 540.188 151.234 548.25 146.172C556.406 141.016 566.156 138.438 577.5 138.438C594.094 138.438 606.984 143.5 616.172 153.625C625.453 163.656 630.094 177.438 630.094 194.969V292H589.031V203.688C589.031 193.844 586.594 186.203 581.719 180.766C576.938 175.234 569.953 172.469 560.766 172.469C551.203 172.469 543.656 175.562 538.125 181.75C532.688 187.844 529.969 195.906 529.969 205.938V292H488.906Z" fill="black"/>
<path d="M292.594 335.594H254.625L326.766 89.0781H364.594L292.594 335.594ZM402.562 335.594H364.594L436.734 89.0781H474.562L402.562 335.594Z" fill="#CBCBCB"/>
<path d="M721.711 351.961H693.195V10.1641H721.711V351.961Z" fill="#DADADA"/>
<path d="M841.469 158H828.334V110.441H827.943L808.803 157.316H799.525L780.385 110.441H779.994V158H766.859V87.541H783.949L803.969 137.492H804.359L824.379 87.541H841.469V158ZM871.01 148.527C874.167 148.527 876.837 147.616 879.018 145.793C881.231 143.938 882.338 141.61 882.338 138.811V135.002L871.303 135.686C868.633 135.881 866.566 136.548 865.102 137.688C863.669 138.827 862.953 140.324 862.953 142.18C862.953 144.133 863.686 145.679 865.15 146.818C866.615 147.958 868.568 148.527 871.01 148.527ZM866.322 158.83C861.277 158.83 857.094 157.349 853.773 154.387C850.453 151.424 848.793 147.616 848.793 142.961C848.793 138.208 850.551 134.481 854.066 131.779C857.582 129.077 862.611 127.531 869.154 127.141L882.338 126.359V122.893C882.338 120.484 881.54 118.596 879.945 117.229C878.383 115.861 876.251 115.178 873.549 115.178C870.945 115.178 868.812 115.764 867.152 116.936C865.525 118.107 864.532 119.686 864.174 121.672H851.137C851.397 116.529 853.594 112.395 857.729 109.27C861.863 106.112 867.348 104.533 874.184 104.533C880.889 104.533 886.26 106.128 890.297 109.318C894.333 112.508 896.352 116.74 896.352 122.014V158H882.582V149.992H882.289C880.857 152.727 878.676 154.891 875.746 156.486C872.816 158.049 869.675 158.83 866.322 158.83ZM905.58 158V105.656H919.35V115.08H919.643C920.554 111.76 922.084 109.221 924.232 107.463C926.381 105.705 929.001 104.826 932.094 104.826C933.591 104.826 934.942 105.005 936.146 105.363V117.912C934.812 117.359 933.087 117.082 930.971 117.082C927.455 117.082 924.721 118.107 922.768 120.158C920.814 122.209 919.838 125.074 919.838 128.752V158H905.58ZM989.857 105.656L971.889 158H955.775L937.66 105.656H952.943L963.832 145.402H964.125L974.965 105.656H989.857ZM995.082 158V105.656H1009.34V158H995.082ZM1007.63 97.7461C1006.17 99.1784 1004.36 99.8945 1002.21 99.8945C1000.06 99.8945 998.256 99.1784 996.791 97.7461C995.326 96.3138 994.594 94.5723 994.594 92.5215C994.594 90.4382 995.326 88.6966 996.791 87.2969C998.256 85.8646 1000.06 85.1484 1002.21 85.1484C1004.36 85.1484 1006.17 85.8646 1007.63 87.2969C1009.1 88.6966 1009.83 90.4382 1009.83 92.5215C1009.83 94.5723 1009.1 96.3138 1007.63 97.7461ZM1018.86 158V105.656H1032.63V114.982H1032.92C1034.36 111.662 1036.44 109.123 1039.17 107.365C1041.94 105.575 1045.31 104.68 1049.28 104.68C1055.08 104.68 1059.55 106.405 1062.71 109.855C1065.87 113.306 1067.45 118.107 1067.45 124.26V158H1053.19V127.238C1053.19 123.788 1052.37 121.135 1050.75 119.279C1049.12 117.424 1046.73 116.496 1043.57 116.496C1040.41 116.496 1037.87 117.554 1035.95 119.67C1034.06 121.786 1033.12 124.553 1033.12 127.971V158H1018.86ZM828.09 277H813.344V247.312H781.605V277H766.859V206.541H781.605V235.154H813.344V206.541H828.09V277ZM886.928 224.656V277H873.158V267.576H872.865C870.131 274.51 864.906 277.977 857.191 277.977C851.462 277.977 846.889 276.235 843.471 272.752C840.053 269.236 838.344 264.451 838.344 258.396V224.656H852.602V255.418C852.602 258.901 853.432 261.554 855.092 263.377C856.785 265.2 859.21 266.111 862.367 266.111C865.525 266.111 868.031 265.07 869.887 262.986C871.742 260.903 872.67 258.12 872.67 254.637V224.656H886.928ZM857.387 215.574C856.15 216.811 854.604 217.43 852.748 217.43C850.893 217.43 849.33 216.811 848.061 215.574C846.824 214.337 846.205 212.84 846.205 211.082C846.205 209.324 846.824 207.827 848.061 206.59C849.33 205.353 850.893 204.734 852.748 204.734C854.604 204.734 856.15 205.353 857.387 206.59C858.656 207.827 859.291 209.324 859.291 211.082C859.291 212.84 858.656 214.337 857.387 215.574ZM877.309 215.574C876.072 216.811 874.525 217.43 872.67 217.43C870.814 217.43 869.252 216.811 867.982 215.574C866.745 214.337 866.127 212.84 866.127 211.082C866.127 209.324 866.745 207.827 867.982 206.59C869.252 205.353 870.814 204.734 872.67 204.734C874.525 204.734 876.072 205.353 877.309 206.59C878.578 207.827 879.213 209.324 879.213 211.082C879.213 212.84 878.578 214.337 877.309 215.574ZM896.547 277V206.541H910.805V277H896.547ZM919.545 240.037C919.545 235.057 921.547 231.069 925.551 228.074C929.555 225.047 934.91 223.533 941.615 223.533C948.158 223.533 953.415 225.063 957.387 228.123C961.358 231.183 963.393 235.252 963.49 240.33H950.355C950.193 238.214 949.314 236.554 947.719 235.35C946.156 234.145 944.057 233.543 941.42 233.543C938.946 233.543 936.96 234.064 935.463 235.105C933.998 236.115 933.266 237.465 933.266 239.158C933.266 241.697 935.544 243.504 940.102 244.578L950.111 246.727C955.352 247.898 959.112 249.607 961.391 251.854C963.702 254.067 964.857 257.127 964.857 261.033C964.857 266.176 962.709 270.311 958.412 273.436C954.115 276.561 948.5 278.123 941.566 278.123C934.665 278.123 929.148 276.593 925.014 273.533C920.88 270.473 918.617 266.355 918.227 261.18H932.143C932.501 263.393 933.51 265.102 935.17 266.307C936.863 267.511 939.125 268.113 941.957 268.113C944.659 268.113 946.775 267.625 948.305 266.648C949.867 265.639 950.648 264.272 950.648 262.547C950.648 261.212 950.16 260.154 949.184 259.373C948.207 258.559 946.547 257.876 944.203 257.322L934.535 255.174C924.542 252.895 919.545 247.85 919.545 240.037ZM971.986 277V224.656H985.756V234.129H986.049C987.156 230.939 989.044 228.4 991.713 226.512C994.382 224.624 997.475 223.68 1000.99 223.68C1004.77 223.68 1007.92 224.624 1010.46 226.512C1013 228.367 1014.71 231.004 1015.59 234.422H1015.88C1017.05 231.134 1019.09 228.53 1021.99 226.609C1024.92 224.656 1028.3 223.68 1032.14 223.68C1037.29 223.68 1041.42 225.291 1044.54 228.514C1047.7 231.736 1049.28 235.984 1049.28 241.258V277H1035.02V244.822C1035.02 241.795 1034.29 239.484 1032.83 237.889C1031.36 236.261 1029.25 235.447 1026.48 235.447C1023.78 235.447 1021.6 236.342 1019.94 238.133C1018.31 239.923 1017.49 242.283 1017.49 245.213V277H1003.77V244.383C1003.77 241.583 1003.02 239.402 1001.53 237.84C1000.03 236.245 997.963 235.447 995.326 235.447C992.624 235.447 990.427 236.375 988.734 238.23C987.074 240.086 986.244 242.479 986.244 245.408V277H971.986ZM1078.53 267.527C1081.69 267.527 1084.36 266.616 1086.54 264.793C1088.75 262.938 1089.86 260.61 1089.86 257.811V254.002L1078.82 254.686C1076.15 254.881 1074.09 255.548 1072.62 256.688C1071.19 257.827 1070.47 259.324 1070.47 261.18C1070.47 263.133 1071.21 264.679 1072.67 265.818C1074.13 266.958 1076.09 267.527 1078.53 267.527ZM1073.84 277.83C1068.8 277.83 1064.61 276.349 1061.29 273.387C1057.97 270.424 1056.31 266.616 1056.31 261.961C1056.31 257.208 1058.07 253.481 1061.59 250.779C1065.1 248.077 1070.13 246.531 1076.67 246.141L1089.86 245.359V241.893C1089.86 239.484 1089.06 237.596 1087.46 236.229C1085.9 234.861 1083.77 234.178 1081.07 234.178C1078.46 234.178 1076.33 234.764 1074.67 235.936C1073.04 237.107 1072.05 238.686 1071.69 240.672H1058.66C1058.92 235.529 1061.11 231.395 1065.25 228.27C1069.38 225.112 1074.87 223.533 1081.7 223.533C1088.41 223.533 1093.78 225.128 1097.82 228.318C1101.85 231.508 1103.87 235.74 1103.87 241.014V277H1090.1V268.992H1089.81C1088.38 271.727 1086.2 273.891 1083.27 275.486C1080.34 277.049 1077.19 277.83 1073.84 277.83ZM1113.1 277V224.656H1126.87V233.982H1127.16C1128.59 230.662 1130.68 228.123 1133.41 226.365C1136.18 224.575 1139.55 223.68 1143.52 223.68C1149.31 223.68 1153.79 225.405 1156.95 228.855C1160.1 232.306 1161.68 237.107 1161.68 243.26V277H1147.43V246.238C1147.43 242.788 1146.61 240.135 1144.98 238.279C1143.36 236.424 1140.96 235.496 1137.81 235.496C1134.65 235.496 1132.11 236.554 1130.19 238.67C1128.3 240.786 1127.36 243.553 1127.36 246.971V277H1113.1ZM1170.72 277V224.656H1184.49V233.982H1184.78C1186.21 230.662 1188.29 228.123 1191.03 226.365C1193.8 224.575 1197.17 223.68 1201.14 223.68C1206.93 223.68 1211.41 225.405 1214.56 228.855C1217.72 232.306 1219.3 237.107 1219.3 243.26V277H1205.04V246.238C1205.04 242.788 1204.23 240.135 1202.6 238.279C1200.97 236.424 1198.58 235.496 1195.42 235.496C1192.27 235.496 1189.73 236.554 1187.81 238.67C1185.92 240.786 1184.97 243.553 1184.97 246.971V277H1170.72Z" fill="black" fill-opacity="0.54"/>
</g>
<defs>
<clipPath id="clip0">
<rect width="1239" height="371" fill="white"/>
</clipPath>
</defs>
</svg>
