<svg width="1875" height="1202" viewBox="0 0 1875 1202" fill="none" xmlns="http://www.w3.org/2000/svg">
<path d="M54.748 921H183.068V636.674C183.068 583.5 216.027 546.586 264.807 546.586C312.268 546.586 340.832 576.469 340.832 627.006V921H464.318V634.477C464.318 582.182 496.398 546.586 545.178 546.586C594.836 546.586 622.082 576.469 622.082 630.961V921H750.402V598.881C750.402 503.959 688.439 440.238 596.154 440.238C527.16 440.238 470.91 478.031 449.816 537.357H447.18C431.359 475.395 383.459 440.238 317.541 440.238C254.26 440.238 205.041 475.395 185.705 529.008H183.068V449.906H54.748V921ZM1379.7 921H1508.02V651.176C1508.02 589.652 1544.49 546.586 1601.18 546.586C1659.63 546.586 1692.15 585.697 1692.15 651.615V921H1820.47V625.248C1820.47 511.43 1757.19 440.238 1655.24 440.238C1584.48 440.238 1534.83 472.758 1510.66 531.205H1508.02V286.869H1379.7V921Z" fill="white"/>
<path d="M1062.85 286.869H949.035L789.953 1074.81H904.211L1062.85 286.869ZM1335.31 286.869H1221.5L1062.41 1074.81H1176.67L1335.31 286.869Z" fill="#CBCBCB"/>
</svg>
