<svg width="2118" height="1051" viewBox="0 0 2118 1051" fill="none" xmlns="http://www.w3.org/2000/svg">
<path d="M36.874 649H101.034V506.837C101.034 480.25 117.514 461.793 141.903 461.793C165.634 461.793 179.916 476.734 179.916 502.003V649H241.659V505.738C241.659 479.591 257.699 461.793 282.089 461.793C306.918 461.793 320.541 476.734 320.541 503.98V649H384.701V487.94C384.701 440.479 353.72 408.619 307.577 408.619C273.08 408.619 244.955 427.516 234.408 457.179H233.09C225.18 426.197 201.229 408.619 168.271 408.619C136.63 408.619 112.021 426.197 102.353 453.004H101.034V413.453H36.874V649ZM699.35 649H763.51V514.088C763.51 483.326 781.747 461.793 810.092 461.793C839.315 461.793 855.575 481.349 855.575 514.308V649H919.735V501.124C919.735 444.215 888.095 408.619 837.118 408.619C801.742 408.619 776.913 424.879 764.828 454.103H763.51V331.935H699.35V649Z" fill="black"/>
<path d="M540.927 331.935H484.018L404.477 725.904H461.605L540.927 331.935ZM677.157 331.935H620.248L540.707 725.904H597.836L677.157 331.935Z" fill="#CBCBCB"/>
<path d="M1032.6 696.994H1076.1V215.476H1032.6V696.994Z" fill="#DADADA"/>
<path d="M1188.72 489H1214.99V393.688H1215.77L1253.86 489H1272.41L1310.4 393.688H1311.28V489H1337.55V348.082H1303.46L1263.43 449.352H1262.84L1222.8 348.082H1188.72V489ZM1387.55 490.66C1401.32 490.66 1412.45 484.117 1418.41 473.375H1418.99V489H1447.51V417.223C1447.51 396.129 1430.03 382.164 1402.98 382.164C1375.34 382.164 1358.74 396.031 1357.18 415.367L1357.08 416.539H1383.15L1383.35 415.66C1384.71 408.922 1391.16 403.941 1401.8 403.941C1412.94 403.941 1418.99 409.703 1418.99 418.98V425.426L1393.11 426.988C1367.14 428.648 1352.39 439.781 1352.39 458.824V459.02C1352.39 477.477 1366.55 490.66 1387.55 490.66ZM1380.61 457.555V457.359C1380.61 449.938 1386.38 445.25 1397.41 444.566L1418.99 443.199V450.719C1418.99 461.656 1409.62 469.859 1396.82 469.859C1386.96 469.859 1380.61 465.27 1380.61 457.555ZM1465.96 489H1494.48V430.406C1494.48 415.172 1502.68 406.773 1516.75 406.773C1520.85 406.773 1524.75 407.359 1527.1 408.336V383.238C1524.95 382.652 1522.02 382.164 1518.89 382.164C1506.69 382.164 1498.19 389.684 1495.07 402.574H1494.48V384.312H1465.96V489ZM1566.45 489H1598.58L1634.52 384.312H1604.73L1583.15 463.805H1582.57L1560.69 384.312H1530.22L1566.45 489ZM1659.32 370.836C1667.92 370.836 1674.56 364.098 1674.56 355.992C1674.56 347.887 1667.92 341.148 1659.32 341.148C1650.73 341.148 1644.09 347.887 1644.09 355.992C1644.09 364.098 1650.73 370.836 1659.32 370.836ZM1645.07 489H1673.58V384.312H1645.07V489ZM1692.72 489H1721.24V428.844C1721.24 415.172 1729.34 405.797 1742.14 405.797C1754.93 405.797 1761.38 413.609 1761.38 427.281V489H1789.89V421.422C1789.89 396.91 1776.8 382.164 1753.76 382.164C1737.94 382.164 1727.2 389.488 1721.82 401.5H1721.24V384.312H1692.72V489ZM1188.72 728H1218.21V668.625H1281.69V728H1311.18V587.082H1281.69V644.309H1218.21V587.082H1188.72V728ZM1359.13 609.445C1367.04 609.445 1373.19 603.293 1373.19 595.773C1373.19 588.254 1367.04 582.102 1359.13 582.102C1351.22 582.102 1345.07 588.254 1345.07 595.773C1345.07 603.293 1351.22 609.445 1359.13 609.445ZM1401.32 609.445C1409.32 609.445 1415.38 603.293 1415.38 595.773C1415.38 588.254 1409.32 582.102 1401.32 582.102C1393.5 582.102 1387.35 588.254 1387.35 595.773C1387.35 603.293 1393.5 609.445 1401.32 609.445ZM1367.82 730.148C1383.64 730.148 1394.38 722.727 1399.75 710.715H1400.34V728H1428.86V623.312H1400.34V683.469C1400.34 697.141 1392.23 706.516 1379.44 706.516C1366.65 706.516 1360.2 698.605 1360.2 684.934V623.312H1331.69V690.891C1331.69 715.402 1344.77 730.148 1367.82 730.148ZM1448.09 728H1476.61V587.082H1448.09V728ZM1538.91 730.148C1565.87 730.148 1584.71 716.672 1584.71 696.164V696.066C1584.71 680.637 1575.73 672.043 1553.86 667.453L1536.08 663.645C1525.54 661.398 1521.92 657.883 1521.92 652.512V652.414C1521.92 645.676 1528.07 641.281 1537.94 641.281C1548.48 641.281 1554.64 646.945 1555.61 654.465L1555.71 655.246H1581.98V654.27C1581.3 635.91 1565.77 621.164 1537.94 621.164C1511.28 621.164 1494.09 634.055 1494.09 653.977V654.074C1494.09 669.699 1504.34 679.855 1524.66 684.152L1542.43 687.863C1552.68 690.109 1556.2 693.332 1556.2 698.898V698.996C1556.2 705.734 1549.66 709.934 1538.91 709.934C1527.49 709.934 1521.34 705.148 1519.48 696.945L1519.29 696.066H1491.45L1491.55 696.945C1493.8 716.77 1509.91 730.148 1538.91 730.148ZM1598.78 728H1627.29V664.816C1627.29 653 1634.62 644.797 1645.46 644.797C1656 644.797 1662.35 651.438 1662.35 662.668V728H1689.79V664.328C1689.79 652.707 1696.92 644.797 1707.76 644.797C1718.8 644.797 1724.85 651.438 1724.85 663.547V728H1753.37V656.418C1753.37 635.324 1739.6 621.164 1719.09 621.164C1703.76 621.164 1691.26 629.562 1686.57 642.746H1685.98C1682.47 628.977 1671.82 621.164 1657.18 621.164C1643.11 621.164 1632.18 628.977 1627.88 640.891H1627.29V623.312H1598.78V728ZM1802.59 729.66C1816.36 729.66 1827.49 723.117 1833.45 712.375H1834.03V728H1862.55V656.223C1862.55 635.129 1845.07 621.164 1818.02 621.164C1790.38 621.164 1773.78 635.031 1772.21 654.367L1772.12 655.539H1798.19L1798.39 654.66C1799.75 647.922 1806.2 642.941 1816.84 642.941C1827.98 642.941 1834.03 648.703 1834.03 657.98V664.426L1808.15 665.988C1782.18 667.648 1767.43 678.781 1767.43 697.824V698.02C1767.43 716.477 1781.59 729.66 1802.59 729.66ZM1795.65 696.555V696.359C1795.65 688.938 1801.41 684.25 1812.45 683.566L1834.03 682.199V689.719C1834.03 700.656 1824.66 708.859 1811.86 708.859C1802 708.859 1795.65 704.27 1795.65 696.555ZM1881 728H1909.52V667.844C1909.52 654.172 1917.62 644.797 1930.42 644.797C1943.21 644.797 1949.66 652.609 1949.66 666.281V728H1978.17V660.422C1978.17 635.91 1965.09 621.164 1942.04 621.164C1926.22 621.164 1915.48 628.488 1910.11 640.5H1909.52V623.312H1881V728ZM1996.24 728H2024.75V667.844C2024.75 654.172 2032.86 644.797 2045.65 644.797C2058.45 644.797 2064.89 652.609 2064.89 666.281V728H2093.41V660.422C2093.41 635.91 2080.32 621.164 2057.27 621.164C2041.45 621.164 2030.71 628.488 2025.34 640.5H2024.75V623.312H1996.24V728Z" fill="black" fill-opacity="0.54"/>
</svg>
