<svg width="1920" height="1080" viewBox="0 0 1920 1080" fill="none" xmlns="http://www.w3.org/2000/svg">
<g clip-path="url(#clip0_505_8)">
<path d="M36.874 649H101.034V506.837C101.034 480.25 117.514 461.793 141.903 461.793C165.634 461.793 179.916 476.734 179.916 502.003V649H241.659V505.738C241.659 479.591 257.699 461.793 282.089 461.793C306.918 461.793 320.541 476.734 320.541 503.98V649H384.701V487.94C384.701 440.479 353.72 408.619 307.577 408.619C273.08 408.619 244.955 427.516 234.408 457.179H233.09C225.18 426.197 201.229 408.619 168.271 408.619C136.63 408.619 112.021 426.197 102.353 453.004H101.034V413.453H36.874V649ZM699.35 649H763.51V514.088C763.51 483.326 781.747 461.793 810.092 461.793C839.315 461.793 855.575 481.349 855.575 514.308V649H919.735V501.124C919.735 444.215 888.095 408.619 837.118 408.619C801.742 408.619 776.913 424.879 764.828 454.103H763.51V331.935H699.35V649Z" fill="black"/>
<path d="M540.927 331.935H484.018L404.477 725.904H461.605L540.927 331.935ZM677.157 331.935H620.248L540.707 725.904H597.836L677.157 331.935Z" fill="#CBCBCB"/>
<path d="M996.598 684.994H1040.1V203.476H996.598V684.994Z" fill="#DADADA"/>
<path d="M1231.84 422H1208.2V336.395H1207.5L1173.04 420.77H1156.35L1121.89 336.395H1121.19V422H1097.55V295.174H1128.31L1164.34 385.086H1165.05L1201.08 295.174H1231.84V422ZM1285.02 404.949C1290.7 404.949 1295.51 403.309 1299.43 400.027C1303.42 396.688 1305.41 392.498 1305.41 387.459V380.604L1285.54 381.834C1280.74 382.186 1277.02 383.387 1274.38 385.438C1271.8 387.488 1270.52 390.184 1270.52 393.523C1270.52 397.039 1271.83 399.822 1274.47 401.873C1277.11 403.924 1280.62 404.949 1285.02 404.949ZM1276.58 423.494C1267.5 423.494 1259.97 420.828 1253.99 415.496C1248.02 410.164 1245.03 403.309 1245.03 394.93C1245.03 386.375 1248.19 379.666 1254.52 374.803C1260.85 369.939 1269.9 367.156 1281.68 366.453L1305.41 365.047V358.807C1305.41 354.471 1303.97 351.072 1301.1 348.611C1298.29 346.15 1294.45 344.92 1289.59 344.92C1284.9 344.92 1281.06 345.975 1278.07 348.084C1275.14 350.193 1273.36 353.035 1272.71 356.609H1249.25C1249.71 347.352 1253.67 339.91 1261.11 334.285C1268.55 328.602 1278.43 325.76 1290.73 325.76C1302.8 325.76 1312.47 328.631 1319.73 334.373C1327 340.115 1330.63 347.732 1330.63 357.225V422H1305.85V407.586H1305.32C1302.74 412.508 1298.82 416.404 1293.54 419.275C1288.27 422.088 1282.62 423.494 1276.58 423.494ZM1347.24 422V327.781H1372.03V344.744H1372.56C1374.2 338.768 1376.95 334.197 1380.82 331.033C1384.69 327.869 1389.4 326.287 1394.97 326.287C1397.66 326.287 1400.1 326.609 1402.26 327.254V349.842C1399.86 348.846 1396.76 348.348 1392.95 348.348C1386.62 348.348 1381.7 350.193 1378.18 353.885C1374.67 357.576 1372.91 362.732 1372.91 369.354V422H1347.24ZM1498.94 327.781L1466.6 422H1437.6L1404.99 327.781H1432.5L1452.1 399.324H1452.62L1472.14 327.781H1498.94ZM1508.35 422V327.781H1534.01V422H1508.35ZM1530.94 313.543C1528.3 316.121 1525.05 317.41 1521.18 317.41C1517.31 317.41 1514.06 316.121 1511.42 313.543C1508.79 310.965 1507.47 307.83 1507.47 304.139C1507.47 300.389 1508.79 297.254 1511.42 294.734C1514.06 292.156 1517.31 290.867 1521.18 290.867C1525.05 290.867 1528.3 292.156 1530.94 294.734C1533.57 297.254 1534.89 300.389 1534.89 304.139C1534.89 307.83 1533.57 310.965 1530.94 313.543ZM1551.15 422V327.781H1575.94V344.568H1576.46C1579.04 338.592 1582.79 334.021 1587.71 330.857C1592.69 327.635 1598.76 326.023 1605.91 326.023C1616.34 326.023 1624.39 329.129 1630.08 335.34C1635.76 341.551 1638.6 350.193 1638.6 361.268V422H1612.94V366.629C1612.94 360.418 1611.47 355.643 1608.54 352.303C1605.61 348.963 1601.31 347.293 1595.62 347.293C1589.94 347.293 1585.37 349.197 1581.91 353.006C1578.51 356.814 1576.81 361.795 1576.81 367.947V422H1551.15ZM1207.76 637H1181.22V583.562H1124.09V637H1097.55V510.174H1124.09V561.678H1181.22V510.174H1207.76V637ZM1313.67 542.781V637H1288.88V620.037H1288.36C1283.44 632.518 1274.03 638.758 1260.14 638.758C1249.83 638.758 1241.6 635.623 1235.45 629.354C1229.29 623.025 1226.22 614.412 1226.22 603.514V542.781H1251.88V598.152C1251.88 604.422 1253.38 609.197 1256.37 612.479C1259.41 615.76 1263.78 617.4 1269.46 617.4C1275.14 617.4 1279.66 615.525 1283 611.775C1286.34 608.025 1288.01 603.016 1288.01 596.746V542.781H1313.67ZM1260.5 526.434C1258.27 528.66 1255.49 529.773 1252.15 529.773C1248.81 529.773 1245.99 528.66 1243.71 526.434C1241.48 524.207 1240.37 521.512 1240.37 518.348C1240.37 515.184 1241.48 512.488 1243.71 510.262C1245.99 508.035 1248.81 506.922 1252.15 506.922C1255.49 506.922 1258.27 508.035 1260.5 510.262C1262.78 512.488 1263.92 515.184 1263.92 518.348C1263.92 521.512 1262.78 524.207 1260.5 526.434ZM1296.36 526.434C1294.13 528.66 1291.35 529.773 1288.01 529.773C1284.67 529.773 1281.85 528.66 1279.57 526.434C1277.34 524.207 1276.23 521.512 1276.23 518.348C1276.23 515.184 1277.34 512.488 1279.57 510.262C1281.85 508.035 1284.67 506.922 1288.01 506.922C1291.35 506.922 1294.13 508.035 1296.36 510.262C1298.64 512.488 1299.78 515.184 1299.78 518.348C1299.78 521.512 1298.64 524.207 1296.36 526.434ZM1330.98 637V510.174H1356.65V637H1330.98ZM1372.38 570.467C1372.38 561.502 1375.98 554.324 1383.19 548.934C1390.4 543.484 1400.04 540.76 1412.11 540.76C1423.88 540.76 1433.35 543.514 1440.5 549.021C1447.64 554.529 1451.31 561.854 1451.48 570.994H1427.84C1427.55 567.186 1425.96 564.197 1423.09 562.029C1420.28 559.861 1416.5 558.777 1411.76 558.777C1407.3 558.777 1403.73 559.715 1401.03 561.59C1398.4 563.406 1397.08 565.838 1397.08 568.885C1397.08 573.455 1401.18 576.707 1409.38 578.641L1427.4 582.508C1436.83 584.617 1443.6 587.693 1447.7 591.736C1451.86 595.721 1453.94 601.229 1453.94 608.26C1453.94 617.518 1450.08 624.959 1442.34 630.584C1434.61 636.209 1424.5 639.021 1412.02 639.021C1399.6 639.021 1389.67 636.268 1382.22 630.76C1374.78 625.252 1370.71 617.84 1370.01 608.523H1395.06C1395.7 612.508 1397.52 615.584 1400.51 617.752C1403.55 619.92 1407.62 621.004 1412.72 621.004C1417.59 621.004 1421.39 620.125 1424.15 618.367C1426.96 616.551 1428.37 614.09 1428.37 610.984C1428.37 608.582 1427.49 606.678 1425.73 605.271C1423.97 603.807 1420.98 602.576 1416.77 601.58L1399.36 597.713C1381.38 593.611 1372.38 584.529 1372.38 570.467ZM1466.78 637V542.781H1491.56V559.832H1492.09C1494.08 554.09 1497.48 549.52 1502.28 546.121C1507.09 542.723 1512.65 541.023 1518.98 541.023C1525.78 541.023 1531.46 542.723 1536.03 546.121C1540.6 549.461 1543.68 554.207 1545.26 560.359H1545.79C1547.9 554.441 1551.56 549.754 1556.78 546.297C1562.05 542.781 1568.14 541.023 1575.06 541.023C1584.31 541.023 1591.76 543.924 1597.38 549.725C1603.06 555.525 1605.91 563.172 1605.91 572.664V637H1580.24V579.08C1580.24 573.631 1578.92 569.471 1576.29 566.6C1573.65 563.67 1569.84 562.205 1564.86 562.205C1560 562.205 1556.07 563.816 1553.08 567.039C1550.15 570.262 1548.69 574.51 1548.69 579.783V637H1523.99V578.289C1523.99 573.25 1522.64 569.324 1519.95 566.512C1517.25 563.641 1513.53 562.205 1508.79 562.205C1503.92 562.205 1499.97 563.875 1496.92 567.215C1493.93 570.555 1492.44 574.861 1492.44 580.135V637H1466.78ZM1658.55 619.949C1664.24 619.949 1669.04 618.309 1672.97 615.027C1676.95 611.688 1678.94 607.498 1678.94 602.459V595.604L1659.08 596.834C1654.28 597.186 1650.55 598.387 1647.92 600.438C1645.34 602.488 1644.05 605.184 1644.05 608.523C1644.05 612.039 1645.37 614.822 1648.01 616.873C1650.64 618.924 1654.16 619.949 1658.55 619.949ZM1650.12 638.494C1641.03 638.494 1633.5 635.828 1627.53 630.496C1621.55 625.164 1618.56 618.309 1618.56 609.93C1618.56 601.375 1621.73 594.666 1628.05 589.803C1634.38 584.939 1643.44 582.156 1655.21 581.453L1678.94 580.047V573.807C1678.94 569.471 1677.51 566.072 1674.64 563.611C1671.82 561.15 1667.99 559.92 1663.12 559.92C1658.44 559.92 1654.6 560.975 1651.61 563.084C1648.68 565.193 1646.89 568.035 1646.25 571.609H1622.78C1623.25 562.352 1627.21 554.91 1634.65 549.285C1642.09 543.602 1651.96 540.76 1664.27 540.76C1676.34 540.76 1686 543.631 1693.27 549.373C1700.54 555.115 1704.17 562.732 1704.17 572.225V637H1679.38V622.586H1678.86C1676.28 627.508 1672.35 631.404 1667.08 634.275C1661.8 637.088 1656.15 638.494 1650.12 638.494ZM1720.78 637V542.781H1745.56V559.568H1746.09C1748.67 553.592 1752.42 549.021 1757.34 545.857C1762.32 542.635 1768.39 541.023 1775.54 541.023C1785.96 541.023 1794.02 544.129 1799.71 550.34C1805.39 556.551 1808.23 565.193 1808.23 576.268V637H1782.57V581.629C1782.57 575.418 1781.1 570.643 1778.17 567.303C1775.24 563.963 1770.94 562.293 1765.25 562.293C1759.57 562.293 1755 564.197 1751.54 568.006C1748.14 571.814 1746.44 576.795 1746.44 582.947V637H1720.78ZM1824.49 637V542.781H1849.28V559.568H1849.8C1852.38 553.592 1856.13 549.021 1861.05 545.857C1866.03 542.635 1872.1 541.023 1879.25 541.023C1889.68 541.023 1897.73 544.129 1903.42 550.34C1909.1 556.551 1911.94 565.193 1911.94 576.268V637H1886.28V581.629C1886.28 575.418 1884.81 570.643 1881.88 567.303C1878.95 563.963 1874.65 562.293 1868.96 562.293C1863.28 562.293 1858.71 564.197 1855.25 568.006C1851.85 571.814 1850.15 576.795 1850.15 582.947V637H1824.49Z" fill="black" fill-opacity="0.54"/>
<path d="M1239.44 699.539H1280.71C1291.16 699.539 1299.62 702.727 1306.09 709.102C1312.61 715.477 1315.87 723.867 1315.87 734.273C1315.87 744.633 1312.52 753.023 1305.81 759.445C1299.11 765.82 1290.39 769.008 1279.66 769.008H1260.67V801H1239.44V699.539ZM1260.67 716.344V752.414H1275.02C1281.11 752.414 1285.84 750.844 1289.22 747.703C1292.59 744.562 1294.28 740.109 1294.28 734.344C1294.28 728.578 1292.59 724.148 1289.22 721.055C1285.89 717.914 1281.18 716.344 1275.09 716.344H1260.67ZM1326.7 801V725.625H1346.52V739.195H1346.95C1348.26 734.414 1350.46 730.758 1353.55 728.227C1356.65 725.695 1360.42 724.43 1364.88 724.43C1367.03 724.43 1368.98 724.688 1370.71 725.203V743.273C1368.79 742.477 1366.3 742.078 1363.26 742.078C1358.2 742.078 1354.26 743.555 1351.45 746.508C1348.63 749.461 1347.23 753.586 1347.23 758.883V801H1326.7ZM1410.44 739.195C1405.98 739.195 1402.26 740.719 1399.26 743.766C1396.3 746.812 1394.64 750.703 1394.27 755.438H1426.26C1426.02 750.609 1424.45 746.695 1421.55 743.695C1418.69 740.695 1414.98 739.195 1410.44 739.195ZM1426.54 777.938H1445.38C1444.26 785.344 1440.55 791.32 1434.27 795.867C1428.04 800.367 1420.28 802.617 1411 802.617C1399.42 802.617 1390.33 799.148 1383.72 792.211C1377.16 785.273 1373.88 775.758 1373.88 763.664C1373.88 751.617 1377.16 742.008 1383.72 734.836C1390.28 727.617 1399.12 724.008 1410.23 724.008C1421.15 724.008 1429.84 727.43 1436.31 734.273C1442.78 741.117 1446.02 750.281 1446.02 761.766V768.023H1394.05V769.289C1394.05 774.68 1395.62 779.062 1398.77 782.438C1401.95 785.766 1406.15 787.43 1411.35 787.43C1415.1 787.43 1418.34 786.586 1421.05 784.898C1423.77 783.164 1425.6 780.844 1426.54 777.938ZM1456.63 801V725.625H1476.46V739.266H1476.88C1478.48 734.672 1481.2 731.016 1485.04 728.297C1488.88 725.578 1493.34 724.219 1498.4 724.219C1503.84 724.219 1508.38 725.578 1512.04 728.297C1515.7 730.969 1518.16 734.766 1519.42 739.688H1519.84C1521.53 734.953 1524.46 731.203 1528.63 728.438C1532.85 725.625 1537.73 724.219 1543.26 724.219C1550.66 724.219 1556.62 726.539 1561.12 731.18C1565.66 735.82 1567.94 741.938 1567.94 749.531V801H1547.41V754.664C1547.41 750.305 1546.35 746.977 1544.24 744.68C1542.13 742.336 1539.09 741.164 1535.1 741.164C1531.21 741.164 1528.07 742.453 1525.68 745.031C1523.34 747.609 1522.16 751.008 1522.16 755.227V801H1502.41V754.031C1502.41 750 1501.33 746.859 1499.17 744.609C1497.02 742.312 1494.04 741.164 1490.24 741.164C1486.35 741.164 1483.19 742.5 1480.75 745.172C1478.36 747.844 1477.16 751.289 1477.16 755.508V801H1456.63ZM1581.3 801V725.625H1601.83V801H1581.3ZM1599.37 714.234C1597.26 716.297 1594.66 717.328 1591.56 717.328C1588.47 717.328 1585.87 716.297 1583.76 714.234C1581.65 712.172 1580.59 709.664 1580.59 706.711C1580.59 703.711 1581.65 701.203 1583.76 699.188C1585.87 697.125 1588.47 696.094 1591.56 696.094C1594.66 696.094 1597.26 697.125 1599.37 699.188C1601.48 701.203 1602.53 703.711 1602.53 706.711C1602.53 709.664 1601.48 712.172 1599.37 714.234ZM1685.15 725.625V801H1665.32V787.43H1664.9C1660.96 797.414 1653.44 802.406 1642.33 802.406C1634.08 802.406 1627.49 799.898 1622.57 794.883C1617.65 789.82 1615.19 782.93 1615.19 774.211V725.625H1635.72V769.922C1635.72 774.938 1636.91 778.758 1639.3 781.383C1641.74 784.008 1645.23 785.32 1649.78 785.32C1654.33 785.32 1657.94 783.82 1660.61 780.82C1663.28 777.82 1664.62 773.812 1664.62 768.797V725.625H1685.15ZM1698.51 801V725.625H1718.34V739.266H1718.76C1720.35 734.672 1723.07 731.016 1726.91 728.297C1730.76 725.578 1735.21 724.219 1740.27 724.219C1745.71 724.219 1750.26 725.578 1753.91 728.297C1757.57 730.969 1760.03 734.766 1761.3 739.688H1761.72C1763.41 734.953 1766.34 731.203 1770.51 728.438C1774.73 725.625 1779.6 724.219 1785.13 724.219C1792.54 724.219 1798.49 726.539 1802.99 731.18C1807.54 735.82 1809.81 741.938 1809.81 749.531V801H1789.28V754.664C1789.28 750.305 1788.23 746.977 1786.12 744.68C1784.01 742.336 1780.96 741.164 1776.98 741.164C1773.09 741.164 1769.95 742.453 1767.55 745.031C1765.21 747.609 1764.04 751.008 1764.04 755.227V801H1744.28V754.031C1744.28 750 1743.2 746.859 1741.05 744.609C1738.89 742.312 1735.91 741.164 1732.12 741.164C1728.23 741.164 1725.06 742.5 1722.62 745.172C1720.23 747.844 1719.04 751.289 1719.04 755.508V801H1698.51Z" fill="#4E8805" fill-opacity="0.87"/>
</g>
<defs>
<clipPath id="clip0_505_8">
<rect width="1920" height="1080" fill="white"/>
</clipPath>
</defs>
</svg>
